<svg xmlns="http://www.w3.org/2000/svg" xmlns:xlink="http://www.w3.org/1999/xlink" version="1.0" x="0" y="0" width="2400" height="582.7425612547712" viewBox="65.18480560302734 99.54988739013672 209.63038879394531 50.90022903442383" preserveAspectRatio="xMidYMid meet" color-interpolation-filters="sRGB"><g><defs><linearGradient id="92" x1="0%" y1="0%" x2="100%" y2="0%"><stop offset="0%" stop-color="#fa71cd"></stop> <stop offset="100%" stop-color="#9b59b6"></stop></linearGradient><linearGradient id="93" x1="0%" y1="0%" x2="100%" y2="0%"><stop offset="0%" stop-color="#f9d423"></stop> <stop offset="100%" stop-color="#f83600"></stop></linearGradient><linearGradient id="94" x1="0%" y1="0%" x2="100%" y2="0%"><stop offset="0%" stop-color="#0064d2"></stop> <stop offset="100%" stop-color="#1cb0f6"></stop></linearGradient><linearGradient id="95" x1="0%" y1="0%" x2="100%" y2="0%"><stop offset="0%" stop-color="#f00978"></stop> <stop offset="100%" stop-color="#3f51b1"></stop></linearGradient><linearGradient id="96" x1="0%" y1="0%" x2="100%" y2="0%"><stop offset="0%" stop-color="#7873f5"></stop> <stop offset="100%" stop-color="#ec77ab"></stop></linearGradient><linearGradient id="97" x1="0%" y1="0%" x2="100%" y2="0%"><stop offset="0%" stop-color="#f9d423"></stop> <stop offset="100%" stop-color="#e14fad"></stop></linearGradient><linearGradient id="98" x1="0%" y1="0%" x2="100%" y2="0%"><stop offset="0%" stop-color="#009efd"></stop> <stop offset="100%" stop-color="#2af598"></stop></linearGradient><linearGradient id="99" x1="0%" y1="0%" x2="100%" y2="0%"><stop offset="0%" stop-color="#ffcc00"></stop> <stop offset="100%" stop-color="#00b140"></stop></linearGradient><linearGradient id="100" x1="0%" y1="0%" x2="100%" y2="0%"><stop offset="0%" stop-color="#d51007"></stop> <stop offset="100%" stop-color="#ff8177"></stop></linearGradient><linearGradient id="102" x1="0%" y1="0%" x2="100%" y2="0%"><stop offset="0%" stop-color="#a2b6df"></stop> <stop offset="100%" stop-color="#0c3483"></stop></linearGradient><linearGradient id="103" x1="0%" y1="0%" x2="100%" y2="0%"><stop offset="0%" stop-color="#7ac5d8"></stop> <stop offset="100%" stop-color="#eea2a2"></stop></linearGradient><linearGradient id="104" x1="0%" y1="0%" x2="100%" y2="0%"><stop offset="0%" stop-color="#00ecbc"></stop> <stop offset="100%" stop-color="#007adf"></stop></linearGradient><linearGradient id="105" x1="0%" y1="0%" x2="100%" y2="0%"><stop offset="0%" stop-color="#b88746"></stop> <stop offset="100%" stop-color="#fdf5a6"></stop></linearGradient></defs><g fill="#FFFFFF" class="icon-text-wrapper icon-svg-group iconsvg" transform="translate(67.24000549316406,101.6050853729248)"><g class="iconsvg-imagesvg" transform="translate(0,0)"><g><rect fill="#FFFFFF" fill-opacity="0" stroke-width="2" x="0" y="0" width="60" height="46.78982789141641" class="image-rect"></rect> <svg x="0" y="0" width="60" height="46.78982789141641" filtersec="colorsb5819740720" class="image-svg-svg primary" style="overflow: visible;"><svg xmlns="http://www.w3.org/2000/svg" viewBox="0.03128623962402344 0 74.05459594726562 57.75"><g fill-opacity=".8"><path d="M13.75 57.75h39.42c2.78 0 5.94-2.41 5-5l-8.51-25.1c-.9-2.62-2.27-5-5-5H5.2c-2.77 0-5.94 2.42-5 5l8.51 25.06c.9 2.63 2.29 5.04 5.04 5.04z" fill="#d13bfc"></path><path d="M19.1 46h39.42c2.78 0 5.94-2.42 5-5L55 15.89c-.9-2.62-2.27-5-5-5H10.54c-2.77 0-5.93 2.41-5 5L14.06 41c.94 2.57 2.27 5 5.04 5z" fill="#02c0fa"></path><path d="M29.49 35.14h39.43c2.77 0 5.93-2.42 5-5L65.4 5c-.89-2.62-2.28-5-5.05-5H20.93c-2.77 0-5.94 2.42-5 5l8.52 25.1c.9 2.62 2.27 5.04 5.04 5.04z" fill="#5c36ee"></path></g></svg></svg> </g></g> <g transform="translate(67,0.5099143981933594)"><g fill-rule="" class="tp-name iconsvg-namesvg"><g transform="scale(1)"><g><path d="M8.52-41.15L9.36-41.15 21.64-21.39 33.87-41.15 34.71-41.15 21.97-20.61 21.97-4.36 21.25-4.36 21.25-20.61ZM27.37-19.11L42.7-43.75 42.7-45.5 30.1-45.5 21.84-30.36 21.39-30.36 13.13-45.5 0.58-45.5 0.58-43.75 15.86-19.11 15.86 0 27.37 0ZM83.98 0.07L88.14 0.07 88.14-45.5C84.18-45.5 80.21-45.5 76.25-45.5L76.25-23.21 53.23-45.7 49.01-45.7 49.01 0C52.98 0 57.01 0 61.04 0L61.04-22.36ZM54.54-36.34L55.25-36.34C59.61-32.11 63.96-27.82 68.19-23.53 72.8-19.24 77.28-14.76 81.84-10.27L81.84-41.08 82.55-41.08 82.55-9.17 82.03-9.17C77.55-13.52 73.19-17.75 68.84-22.04 64.42-26.39 59.87-30.88 55.31-35.23L55.31-4.49 54.54-4.49ZM116.87-45.5L99.71-45.5 99.71 0 116.87 0C146.51-0.13 146.51-45.37 116.87-45.5ZM105.37-40.63L116.74-40.63C139.36-40.63 139.36-4.88 116.74-4.88L105.37-4.88ZM116.74-5.59L105.95-5.59 105.95-39.98 116.74-39.98C138.58-39.84 138.58-5.66 116.74-5.59ZM111.35-10.6L116.87-10.6C131.37-10.6 131.37-34.91 116.87-34.91L111.35-34.91Z" transform="translate(-0.5799999833106995, 45.70000076293945)"></path></g> </g></g> </g></g><defs v-gra="od"></defs></g></svg>